# xmcd CD database file
#
# Track frame offsets:
#	150
#	14683
#	30131
#	48029
#	59821
#	77279
#	97427
#	114107
#	132280
#	148880
#	169696
#	189393
#	207141
#	221462
#	236247
#	255227
#	272689
#	290529
#	303375
#	318247
#
# Disc length: 4444 seconds
#
# Revision: 0
# Processed by: cddbd v1.5.1PL0 Copyright (c) Steve Scherf et al.
# Submitted via: CDex 1.51
#
DISCID=19115a14
DTITLE=Leonardo - 20 mais volume 3
DYEAR=2004
DGENRE=Country
TTITLE0=Te amo demais
TTITLE1=E não vou and deixar voce tão só
TTITLE2=Tua sombra em meu caminho
TTITLE3=Fome de amor
TTITLE4=Fiquei sozinho
TTITLE5=Como esquecer de voce
TTITLE6=Feitiço
TTITLE7=Quero colo
TTITLE8=Incerteza
TTITLE9=Será
TTITLE10=Nunca mais
TTITLE11=Sonho por sonho
TTITLE12=Sabor de mim
TTITLE13=Todas as coisas do mundo
TTITLE14=Cristal quebrado
TTITLE15=Doce mistério
TTITLE16=Solidão
TTITLE17=Sontradições
TTITLE18=Pense em mim
TTITLE19=Entre tapas e beijos
EXTD=YEAR: 2004
EXTT0=
EXTT1=
EXTT2=
EXTT3=
EXTT4=
EXTT5=
EXTT6=
EXTT7=
EXTT8=
EXTT9=
EXTT10=
EXTT11=
EXTT12=
EXTT13=
EXTT14=
EXTT15=
EXTT16=
EXTT17=
EXTT18=
EXTT19=
PLAYORDER=
